<svg fill="#428bca" stroke="#428bca" viewBox="0 0 29.74 34.76" xmlns="http://www.w3.org/2000/svg"><path d="m27.06 0h-15.23l-4.53 4.53h-1l-.37-.33v-.55l-1.41-1.42h-.52l-4 4v.56l1.42 1.37h.58l.33.33v1l-.76.76v21.83l2.68 2.68h22.81l2.68-2.68v-29.47zm-11.87 30.74a7.42 7.42 0 0 1 -6.19-11.55 7.43 7.43 0 0 1 .47-.62c3.19-3.66 3.38-7.68 6.73-10-1 3.9 2.09 7 4.63 10a7.44 7.44 0 0 1 .47.62 7.42 7.42 0 0 1 -6.15 11.56zm12-26.14h-17.27l2.81-2.81h13.08l1.36 1.36zm-12.41 11.18a14.6 14.6 0 0 0 2.71 3.81c.29.33.58.65.86 1a4.14 4.14 0 1 1 -6.33 0 16.13 16.13 0 0 0 2.62-4.49zm.41-2.78c-1.39 1.63-1.73 4.41-3.93 6.94a5.14 5.14 0 0 0 -.32.43 5.13 5.13 0 1 0 8.51 0 5.16 5.16 0 0 0 -.33-.43c-1.76-2.09-3.93-3.94-3.93-6.94z"/></svg>