<svg xmlns="http://www.w3.org/2000/svg" viewBox="0 0 37.83 32.76" style="fill: #428bca; stroke: #428bca">
  <path d="M35.17,21l2.65-4.59-2.65-4.59H31.61L29.24,7.68,31,4.59,28.37,0h-5.3L21.28,3.09H16.54L14.76,0H9.46L6.81,4.59,8.59,7.68,6.22,11.79H2.65L0,16.38,2.65,21H6.22l2.37,4.11L6.81,28.17l2.65,4.59h5.3l1.78-3.09h4.74l1.78,3.09h5.3L31,28.17l-1.78-3.09L31.61,21ZM23.07,23.58l-1.78,3.09H16.54l-1.78-3.09H11.19L8.82,19.47l1.78-3.09L8.82,13.29l2.37-4.11h3.57l1.78-3.09h4.74l1.78,3.09h3.57L29,13.29l-1.78,3.09L29,19.47l-2.37,4.11Z"></path>
</svg>
