<svg xmlns="http://www.w3.org/2000/svg" viewBox="0 0 32.91 29.38" style="fill: #428bca; stroke: #428bca">
  <path d="M17.83,28.74l-.65.65h4l-7.65-7.65a2.29,2.29,0,0,0,0-3.16l-3.9,1a2.29,2.29,0,0,0,.55,2.14L2.53,29.38h4l-.66-.66,6-6ZM32.91,9.29l-.59.64-3.71,1-.67-.3-10.81,2.9.12.44-1.83,2.59L3.94,19.63,2.81,19l-1-3.69.65-1.13,13.26-3.55.71.29.12.44L27.36,8.45l.43-.59,3.65-1,.83.27ZM31.1,2.41,30.51,3,26.8,4l-.67-.3L15.32,6.64l.12.44L13.62,9.83,2.14,12.91,1,12.25,0,8.42.65,7.29,13.91,3.74l.71.29.12.44L25.55,1.58,26,1l3.65-1,.83.27Z"></path>
</svg>
