<svg xmlns="http://www.w3.org/2000/svg" viewBox="0 0 40.51 38.54" style="fill: #428bca; stroke: #428bca">
  <path d="M27.19,1.91H38.58L40.51,0H0L1.91,1.91H13.64V3.73L15,5.13H5.12L7,7h9.13v9l-1.29,1.28v7.64l1.29,1.32h2c.11,2.22.35,3.43,2.07,5a3.17,3.17,0,0,1,1.3,2.22,2.53,2.53,0,0,1-5.05.07.48.48,0,0,0-.49-.45.55.55,0,0,0-.51.5s0,.12,0,.13A4.79,4.79,0,1,0,23.21,30a4.65,4.65,0,0,1-1.46-3.72h2.69l1.29-1.32V21.39l-.85-.87V7h8.56l1.94-1.91H25.77l1.42-1.42ZM22.87,18.53,20.37,16H18.16V7h4.71Z"></path>
</svg>
