<svg xmlns="http://www.w3.org/2000/svg" viewBox="0 0 39.366 39.366" style="fill: #428bca; stroke: #428bca">
  <path d="M19.683 0c-4.44 0-8.527 1.495-11.823 3.984h-.004l-.003.005C3.093 7.584 0 13.27 0 19.682c0 10.854 8.83 19.683 19.683 19.683 4.44 0 8.527-1.495 11.823-3.984h.004l.004-.006c4.758-3.596 7.852-9.283 7.852-15.693C39.366 8.83 30.536 0 19.683 0zm10.453 29.12c-2.71-.188-5.183-1.615-6.7-3.868l-.7-1.04-2.927.99.26 1.757c.527 3.556 3.162 6.436 6.66 7.276l2.157.52c-2.685 1.645-5.83 2.612-9.204 2.612-.358 0-.708-.033-1.06-.054l-1.885-3.86c-1.193-2.44-1.193-5.295 0-7.737l.55-1.126-2.32-2.038-1.39 1.103c-2.818 2.236-3.994 5.958-2.973 9.406l.638 2.158c-3.168-1.728-5.736-4.405-7.358-7.637l2.4-3.562c1.518-2.254 3.99-3.68 6.7-3.87l1.252-.086.606-3.03-1.65-.65C9.847 15.06 6.035 15.9 3.56 18.51l-1.536 1.618c-.005-.15-.024-.295-.024-.445 0-3.595 1.085-6.94 2.935-9.734l4.295.296c2.71.188 5.183 1.615 6.7 3.868l.7 1.04 2.927-.99-.26-1.756c-.528-3.557-3.163-6.437-6.66-7.277l-2.16-.518C13.165 2.967 16.31 2 19.684 2c.358 0 .708.033 1.06.054l1.886 3.86c1.192 2.44 1.192 5.295 0 7.737l-.55 1.127 2.32 2.04 1.39-1.104c2.817-2.236 3.993-5.958 2.972-9.406l-.64-2.157c3.17 1.728 5.737 4.405 7.36 7.637l-2.4 3.563c-1.52 2.253-3.99 3.68-6.702 3.87l-1.25.086-.606 3.03 1.65.65c3.345 1.323 7.157.48 9.633-2.128l1.536-1.618c.004.15.022.294.022.444 0 3.595-1.085 6.94-2.935 9.734l-4.294-.298z"></path>
</svg>
