<?xml version="1.0" encoding="UTF-8"?>
<svg width="45px" height="46px" viewBox="0 0 45 46" version="1.1" xmlns="http://www.w3.org/2000/svg" xmlns:xlink="http://www.w3.org/1999/xlink">
    <title>quantum_drives</title>
    <g id="Page-1" stroke="none" stroke-width="1" fill="none" fill-rule="evenodd">
        <g id="quantum_drives" transform="translate(2.000000, 2.000000)" stroke="#428BCA">
            <path d="M40.35,21.18 L20.18,41.35 L0,21.18 L20.18,1 L40.35,21.18 Z M20.18,38.12 L37.12,21.18 L20.18,4.23 L3.23,21.18 L20.18,38.12 Z M19,25.79 L19,32.65 L21.28,32.65 L21.28,25.79 L24.75,25.79 L24.75,22.32 L31.61,22.32 L31.61,20 L24.79,20 L24.79,16.56 L21.32,16.56 L21.32,9.7 L19,9.7 L19,16.56 L15.56,16.56 L15.56,20 L8.7,20 L8.7,22.28 L15.56,22.28 L15.56,25.75 L19,25.79 Z" id="Shape" fill="#428BCA" fill-rule="nonzero"></path>
            <line x1="40.5" y1="0.5" x2="0.5" y2="41.5" id="Line" stroke-width="3" stroke-linecap="square"></line>
        </g>
    </g>
</svg>