<svg fill="#428bca" stroke="#428bca" viewBox="0 0 37.83 32.76" xmlns="http://www.w3.org/2000/svg"><path d="m35.17 21 2.65-4.59-2.65-4.59h-3.56l-2.37-4.14 1.76-3.09-2.63-4.59h-5.3l-1.79 3.09h-4.74l-1.78-3.09h-5.3l-2.65 4.59 1.78 3.09-2.37 4.11h-3.57l-2.65 4.59 2.65 4.62h3.57l2.37 4.11-1.78 3.06 2.65 4.59h5.3l1.78-3.09h4.74l1.78 3.09h5.3l2.64-4.59-1.78-3.09 2.39-4.08zm-12.1 2.58-1.78 3.09h-4.75l-1.78-3.09h-3.57l-2.37-4.11 1.78-3.09-1.78-3.09 2.37-4.11h3.57l1.78-3.09h4.74l1.78 3.09h3.57l2.37 4.11-1.78 3.09 1.78 3.09-2.37 4.11z"/></svg>