<svg fill="#428bca" stroke="#428bca" viewBox="0 0 32.91 29.38" xmlns="http://www.w3.org/2000/svg"><path d="m17.83 28.74-.65.65h4l-7.65-7.65a2.29 2.29 0 0 0 0-3.16l-3.9 1a2.29 2.29 0 0 0 .55 2.14l-7.65 7.66h4l-.66-.66 6-6zm15.08-19.45-.59.64-3.71 1-.67-.3-10.81 2.9.12.44-1.83 2.59-11.48 3.07-1.13-.63-1-3.69.65-1.13 13.26-3.55.71.29.12.44 10.81-2.91.43-.59 3.65-1 .83.27zm-1.81-6.88-.59.59-3.71 1-.67-.3-10.81 2.94.12.44-1.82 2.75-11.48 3.08-1.14-.66-1-3.83.65-1.13 13.26-3.55.71.29.12.44 10.81-2.89.45-.58 3.65-1 .83.27z"/></svg>