<?xml version="1.0" encoding="UTF-8"?>
<svg width="31px" height="40px" viewBox="0 0 31 40" version="1.1" xmlns="http://www.w3.org/2000/svg" xmlns:xlink="http://www.w3.org/1999/xlink">
    <title>main_thrusters</title>
    <g id="Page-1" stroke="none" stroke-width="1" fill="none" fill-rule="evenodd">
        <g id="main_thrusters" transform="translate(2, 1)" fill="#428BCA" fill-rule="nonzero" stroke="#428BCA">
            <path d="M21.8,2.30012904 L27.6,10.600129 L26.2,13.200129 L22.3,9.40012904 C20.9400216,8.06014469 19.1092044,7.30627876 17.2,7.30012904 L10.4,7.30012904 C8.49079562,7.30627876 6.65997835,8.06014469 5.3,9.40012904 L1.3,13.300129 L0,10.600129 L5.8,2.30012904 C6.83811693,0.848909445 8.51572142,-0.00853285361 10.3,6.40372443e-05 L17.4,6.40372443e-05 C19.1489517,0.0235372519 20.7824936,0.877434173 21.8,2.30012904 L21.8,2.30012904 Z M13.8,30.700129 L20.6,14.100129 L27.4,21.200129 L22.3,20.600129 L13.8,37.000129 L5.2,20.600129 L0.2,21.200129 L7,14.100129 L13.8,30.700129 Z M11.3,11.100129 L16.4,11.100129 C16.7589989,11.1081556 17.0914811,11.2909042 17.2906676,11.589684 C17.4898541,11.8884638 17.5306674,12.2656583 17.4,12.600129 L13.8,20.600129 L10.3,12.700129 C10.1693326,12.3656583 10.2101459,11.9884638 10.4093324,11.689684 C10.6085189,11.3909042 10.9410011,11.2081556 11.3,11.200129 L11.3,11.100129 Z" id="Shape"></path>
        </g>
    </g>
</svg>