<svg xmlns="http://www.w3.org/2000/svg" viewBox="0 0 40.35 40.35" style="fill: #428bca; stroke: #428bca">
  <path d="M15.84,7.56,14.23,5.95,20.18,0l5.95,5.95L24.51,7.56,20.18,3.23Zm-9.9,6.67L0,20.18l5.95,5.95,1.62-1.62L3.23,20.18l4.33-4.33ZM34.4,26.12l5.95-5.95L34.4,14.23l-1.62,1.62,4.33,4.33-4.33,4.33Zm-14.23,11-4.33-4.33L14.23,34.4l5.95,5.95,5.95-5.95-1.62-1.62Zm7.94-16.94L25,17,35.87,6.1,34.25,4.49,23.34,15.4l-3.16-3.16L17,15.4,6.1,4.49,4.49,6.1,15.4,17l-3.16,3.16,3.16,3.16L4.49,34.25,6.1,35.87,17,25l3.16,3.16L23.34,25,34.25,35.87l1.62-1.62L25,23.34Z"></path>
</svg>
