<?xml version="1.0" encoding="UTF-8"?>
<svg width="35px" height="31px" viewBox="0 0 35 31" version="1.1" xmlns="http://www.w3.org/2000/svg" xmlns:xlink="http://www.w3.org/1999/xlink">
    <title>turrets</title>
    <g id="Page-1" stroke="none" stroke-width="1" fill="none" fill-rule="evenodd">
        <g id="turrets" transform="translate(1.000000, 1.000000)" fill="#7A8288" fill-rule="nonzero" stroke="#7A8288">
            <path d="M17.83,28.74 L17.18,29.39 L21.18,29.39 L13.53,21.74 C14.373175,20.8554034 14.373175,19.4645966 13.53,18.58 L9.63,19.58 C9.43431212,20.3404517 9.64189551,21.1481398 10.18,21.72 L2.53,29.38 L6.53,29.38 L5.87,28.72 L11.87,22.72 L17.83,28.74 Z M32.91,9.29 L32.32,9.93 L28.61,10.93 L27.94,10.63 L17.13,13.53 L17.25,13.97 L15.42,16.56 L3.94,19.63 L2.81,19 L1.81,15.31 L2.46,14.18 L15.72,10.63 L16.43,10.92 L16.55,11.36 L27.36,8.45 L27.79,7.86 L31.44,6.86 L32.27,7.13 L32.91,9.29 Z M31.1,2.41 L30.51,3 L26.8,4 L26.13,3.7 L15.32,6.64 L15.44,7.08 L13.62,9.83 L2.14,12.91 L1,12.25 L6.66133815e-16,8.42 L0.65,7.29 L13.91,3.74 L14.62,4.03 L14.74,4.47 L25.55,1.58 L26,1 L29.65,5.55111512e-16 L30.48,0.27 L31.1,2.41 Z" id="Shape"></path>
        </g>
    </g>
</svg>