<?xml version="1.0" encoding="utf-8"?>
<!-- Generator: Adobe Illustrator 22.0.1, SVG Export Plug-In . SVG Version: 6.00 Build 0)  -->
<svg version="1.1" baseProfile="tiny" id="Layer_2" xmlns="http://www.w3.org/2000/svg" xmlns:xlink="http://www.w3.org/1999/xlink"
	 x="0px" y="0px" viewBox="0 0 2048 2048" xml:space="preserve">
<g>
	<path fill="#FFFFFF" d="M1464.4,277.7H1575l22.1,69.2h76.4l-110.6-311h-83.1l-113.2,311h75.9L1464.4,277.7z M1513.2,118.5
		c2.9-9,4.7-18,5.4-27.1h1.7c1,10.8,2.7,20.2,5.2,28l33.4,104.5h-79.6L1513.2,118.5z"/>
	<path fill="#FFFFFF" d="M1691.8,339c3.4,3.7,7.6,6.6,12.4,8.5c4.9,2,10.2,3,16.2,3c6.5,0,12.7-0.4,18.7-1.3c6-0.9,11.7-2,17-3.5
		v-31.4c-2.5,0.5-4.9,0.9-7.3,1.4c-2.5,0.5-4.9,0.7-7.3,0.7c-4.9,0-8.8-1.6-11.7-4.7c-2.9-3.2-4.4-7.8-4.4-13.9V132.7H1681v175.1
		c0,6.6,0.9,12.5,2.8,17.8C1685.7,330.8,1688.3,335.3,1691.8,339z"/>
	<path fill="#FFFFFF" d="M1867.9,202.2V285c0,9.6-2.4,17.2-7.2,22.8c-4.8,5.6-11.2,8.4-19.2,8.4c-16.2,0-24.3-10.2-24.3-30.7v-83.4
		h-44.5v87.3c0,40.6,16.8,60.9,50.3,60.9c18.5,0,33.2-8.5,44.2-25.6h0.7v22h44.5V202.2H1867.9z"/>
	<path fill="#FFFFFF" d="M660.9,1834.1v-589.7c0-25.4,20.7-46.1,46.1-46.1h360.6v-115.7H124.5v115.7h360.6
		c25.4,0,46.1,20.7,46.1,46.1v589.7c0,25.4-20.7,46.1-46.1,46.1H124.5v115.7h943.7v-115.7H707.5
		C681.6,1880.2,660.9,1859.5,660.9,1834.1z"/>
	<polygon fill="#FFFFFF" points="1748.5,438.9 1133,1065.7 1133,1180.4 1748.5,555.5 	"/>
	<polygon fill="#FFFFFF" points="1133,1982.7 1757.4,1358.3 1757.4,1241.7 1133,1868.4 	"/>
	<polygon fill="#FFFFFF" points="1712.3,392.9 868.3,392.9 144.2,1017.7 1100.6,1017.7 	"/>
	<polygon fill="#FFFFFF" points="725.8,1783.8 1364.3,1144.8 1364.3,1006.9 1133.5,1242 725.8,1242 	"/>
	<polygon fill="#FFFFFF" points="1409.9,1190.9 785.5,1815.8 1109.5,1815.8 1721.7,1190.9 	"/>
</g>
</svg>
