<?xml version="1.0" encoding="utf-8"?>
<!-- Generator: Adobe Illustrator 22.0.1, SVG Export Plug-In . SVG Version: 6.00 Build 0)  -->
<svg version="1.1" baseProfile="tiny" id="Layer_2_1_"
	 xmlns="http://www.w3.org/2000/svg" xmlns:xlink="http://www.w3.org/1999/xlink" x="0px" y="0px" viewBox="0 0 2048 2048"
	 xml:space="preserve">
<g>
	<path fill="#FFFFFF" d="M1477.8,359.3c36.6,0,66.2-5.5,88.9-16.5v-64c-22.7,13.3-47.7,20-75,20c-28.6,0-51.4-8.9-68.3-26.8
		c-16.9-17.9-25.4-41.8-25.4-71.9c0-31.4,9-56.3,26.9-74.6c17.9-18.4,41.5-27.5,70.7-27.5c26.6,0,50.3,6.2,71.1,18.7V49.1
		c-20.8-7.7-46.4-11.5-76.8-11.5c-49,0-88.9,15.5-119.6,46.4c-30.7,30.9-46.1,71.3-46.1,121c0,46.7,13.7,84.1,41,112.1
		C1392.5,345.3,1430,359.3,1477.8,359.3z"/>
	<path fill="#FFFFFF" d="M1647.7,337.1h0.6c9.1,13.6,22.4,20.3,39.8,20.3c19.8,0,35.6-7.3,47.5-21.9c11.9-14.6,17.9-34,17.9-58.1
		c0-22.1-5.1-39.6-15.3-52.5c-10.2-12.9-24.7-19.3-43.4-19.3c-20,0-35.5,8.4-46.5,25.3h-0.6v-21.8h-44.7v211.2h44.7V337.1z
		 M1647,277.7c0-11.4,2.9-20.6,8.7-27.5c5.8-6.9,13.3-10.4,22.4-10.4c19.8,0,29.7,12.7,29.7,38.1c0,14.4-2.8,25.6-8.4,33.4
		c-5.6,7.9-13.5,11.8-23.7,11.8c-8.6,0-15.5-3.2-20.8-9.5c-5.3-6.3-7.9-14.5-7.9-24.4V277.7z"/>
	<path fill="#FFFFFF" d="M1827.1,284.8c0-12.2,2.7-21.9,8.2-29c5.5-7.1,13-10.7,22.7-10.7c7.2,0,13.4,1.5,18.8,4.4v-41.1
		c-2.6-1.1-6.3-1.7-11-1.7c-18.4,0-31.1,9.8-38.2,29.4h-0.6v-26.8h-44.7v144.7h44.7V284.8z"/>
	<rect x="20" y="1856.4" fill="#FFFFFF" width="1119.8" height="117.7"/>
	<rect x="181" y="1573.8" fill="#FFFFFF" width="797.5" height="117.7"/>
	<rect x="181" y="1341.1" fill="#FFFFFF" width="797.5" height="117.7"/>
	<rect x="181" y="1108.9" fill="#FFFFFF" width="797.5" height="117.7"/>
	<rect x="181" y="876.6" fill="#FFFFFF" width="797.5" height="117.7"/>
	<rect x="20" y="356.4" fill="#FFFFFF" width="1119.8" height="117.7"/>
	<path fill="#FFFFFF" d="M1994.1,1671.3l-146.8,50.7c-89,30.5-184,17-261.3-37.6C1509.3,1629.8,1465,1544,1465,1450v-294.3
		c0-274.1-216.3-497.9-486.5-511H971c-5.7-0.4-790,0-790,0v117.4h772.3c217,0,393.3,176.6,393.3,393.6V1450
		c0,133,62.1,253.9,170.6,330.8c70.6,50,151.4,75.9,234.4,75.9c44.7,0,90.1-7.4,133.7-22.7l146.8-50.7L1994.1,1671.3z"/>
</g>
</svg>
